<?xml version="1.0" standalone="no"?>
<!DOCTYPE svg PUBLIC "-//W3C//DTD SVG 20010904//EN"
 "http://www.w3.org/TR/2001/REC-SVG-20010904/DTD/svg10.dtd">
<svg version="1.0" xmlns="http://www.w3.org/2000/svg"
 width="870.000000pt" height="521.000000pt" viewBox="0 0 870.000000 521.000000"
 preserveAspectRatio="xMidYMid meet">
<metadata>
Created by potrace 1.16, written by Peter Selinger 2001-2019
</metadata>
<g transform="translate(0.000000,521.000000) scale(0.100000,-0.100000)"
fill="#000000" stroke="none">
<path d="M5950 3935 c-75 -25 -120 -76 -120 -136 0 -45 36 -79 84 -79 54 0 76
-24 76 -80 0 -39 4 -52 20 -60 11 -6 24 -9 29 -6 20 13 103 9 112 -5 5 -8 6
-45 3 -84 -6 -62 -4 -72 14 -88 11 -11 37 -20 58 -22 33 -3 42 1 81 43 69 75
93 132 93 221 0 144 -62 221 -221 274 -100 34 -171 41 -229 22z"/>
<path d="M6004 3231 c-99 -27 -244 -91 -260 -116 -23 -36 -175 -406 -169 -414
2 -5 59 -19 125 -32 l120 -23 0 -84 c0 -125 -26 -396 -65 -667 -42 -299 -51
-483 -36 -787 14 -272 55 -805 63 -813 3 -3 43 -8 90 -12 l84 -6 44 334 c99
760 117 883 123 864 12 -38 108 -441 127 -535 11 -52 49 -217 86 -367 74 -307
55 -275 175 -289 l55 -6 13 284 c20 432 -2 828 -64 1153 -14 77 -26 147 -27
155 0 21 53 684 55 687 1 1 25 4 52 8 27 3 52 9 56 13 8 9 -74 461 -89 488
-13 25 -69 74 -83 74 -6 0 -25 11 -43 25 -17 13 -58 36 -90 51 -79 36 -237 43
-342 15z"/>
<path d="M5170 1988 c-56 -39 -75 -73 -74 -134 1 -144 172 -208 272 -102 l22
25 -24 12 c-54 29 -72 127 -31 161 22 18 19 28 -15 45 -43 22 -111 19 -150 -7z"/>
<path d="M5693 159 c-38 -11 -91 -61 -99 -95 l-6 -24 -2294 0 c-2040 0 -2294
-2 -2294 -15 0 -14 405 -15 3705 -13 2462 2 3705 6 3705 13 0 7 -312 11 -910
13 l-910 2 0 43 c0 93 7 89 -163 85 l-149 -3 -34 -40 c-19 -21 -37 -49 -40
-62 -6 -22 -10 -23 -120 -23 l-114 0 0 65 0 65 -122 -1 c-68 0 -137 -5 -155
-10z"/>
</g>
</svg>
