<?xml version="1.0" standalone="no"?>
<!DOCTYPE svg PUBLIC "-//W3C//DTD SVG 20010904//EN"
 "http://www.w3.org/TR/2001/REC-SVG-20010904/DTD/svg10.dtd">
<svg version="1.0" xmlns="http://www.w3.org/2000/svg"
 width="833.000000pt" height="501.000000pt" viewBox="0 0 833.000000 501.000000"
 preserveAspectRatio="xMidYMid meet">
<metadata>
Created by potrace 1.16, written by Peter Selinger 2001-2019
</metadata>
<g transform="translate(0.000000,501.000000) scale(0.100000,-0.100000)"
fill="#000000" stroke="none">
<path d="M2670 4823 c-56 -18 -98 -68 -114 -135 -3 -15 -15 -32 -26 -38 -24
-13 -26 -63 -5 -100 8 -14 15 -47 15 -75 2 -66 51 -158 109 -202 133 -102 324
-68 406 72 27 45 84 240 85 286 0 30 -21 52 -41 44 -10 -4 -15 4 -16 27 -5 66
-79 100 -212 97 -42 -1 -86 3 -97 8 -25 13 -85 23 -104 16z"/>
<path d="M2765 4133 c-40 -2 -84 -14 -130 -35 l-70 -31 47 -46 47 -46 -63
-416 -63 -417 69 -203 c37 -111 67 -203 66 -204 -14 -11 -209 -125 -213 -125
-4 0 -37 64 -75 143 -56 116 -69 137 -73 117 -3 -14 -8 -132 -12 -262 l-6
-237 26 -7 c30 -8 30 -6 14 -339 l-12 -230 -30 -34 -29 -35 6 -94 c6 -81 5
-97 -10 -113 -9 -10 -25 -19 -34 -19 -37 0 -110 -111 -224 -345 -91 -184 -226
-486 -226 -503 0 -6 7 -15 16 -20 14 -8 6 -24 -51 -106 -54 -78 -70 -94 -83
-87 -13 7 -26 -5 -69 -67 -29 -42 -52 -80 -51 -84 5 -15 362 -258 379 -258 22
0 39 49 39 109 0 61 -33 114 -99 161 l-52 37 87 97 c63 71 92 96 107 94 16 -2
76 79 326 442 l307 445 79 272 c43 150 80 271 82 270 1 -1 22 -149 47 -328
l46 -325 0 -508 0 -509 40 6 40 5 0 -44 c0 -37 -3 -44 -20 -44 -19 0 -20 -7
-20 -90 l0 -90 241 0 241 0 -7 32 c-11 52 -32 85 -72 115 -32 25 -47 28 -121
32 l-84 3 6 30 c3 17 6 41 6 54 0 21 5 24 34 24 l34 0 6 62 c20 205 88 1229
101 1533 11 225 21 362 27 366 22 14 -4 254 -107 994 -57 413 -105 765 -107
783 -2 28 -7 34 -38 42 -165 43 -157 42 -315 33z"/>
<path d="M7240 3560 l0 -40 255 0 255 0 0 40 0 40 -255 0 -255 0 0 -40z"/>
<path d="M3534 2389 l-81 -20 25 -71 c20 -54 33 -75 56 -89 57 -35 123 -20
156 33 33 55 22 115 -30 155 -19 16 -28 15 -126 -8z"/>
</g>
</svg>
